<svg width="50" height="50" viewBox="0 0 50 50" fill="none" xmlns="http://www.w3.org/2000/svg">
<rect width="50" height="50" rx="15" fill="#1F1F1F"/>
<path d="M14.5577 24.1022C15.2715 23.3884 16.4054 23.3508 17.1634 23.9895L17.2862 24.1022L27.4276 34.2436C28.181 34.9971 28.181 36.2186 27.4276 36.972C26.7138 37.6858 25.5799 37.7234 24.8219 37.0847L24.6992 36.972L14.5577 26.8306C13.8043 26.0772 13.8043 24.8556 14.5577 24.1022Z" fill="#444444"/>
<path d="M35.1822 13.0174C36.1888 12.0216 37.889 12.6768 37.9881 14.0428L37.9927 14.1689V24.9053C37.9927 25.8047 37.2556 26.5338 36.3463 26.5338C35.4784 26.5338 34.7673 25.8695 34.7045 25.0268L34.7 24.9053L34.6997 18.1002L26.6568 26.0568C25.6502 27.0526 23.95 26.3974 23.8509 25.0314L23.8463 24.9053L23.846 18.1002L15.8032 26.0568C15.1941 26.6594 14.2264 26.6911 13.5796 26.152L13.4749 26.0568C12.8658 25.4543 12.8337 24.4971 13.3787 23.8573L13.4749 23.7537L24.3285 13.0174C25.3352 12.0216 27.0354 12.6768 27.1345 14.0428L27.139 14.1689L27.1387 20.973L35.1822 13.0174Z" fill="white"/>
</svg>
