<svg width="50" height="50" viewBox="0 0 50 50" fill="none" xmlns="http://www.w3.org/2000/svg">
<rect width="50" height="50" rx="15" fill="#F16718"/>
<rect x="13" y="13" width="24" height="24" fill="white"/>
<path fill-rule="evenodd" clip-rule="evenodd" d="M19.3781 23.0205C19.3781 23.1336 19.3144 23.1996 19.2051 23.1996H17.8393C17.73 23.1996 17.6663 23.1336 17.6663 23.0205V18.2025C17.6663 18.1553 17.639 18.127 17.5935 18.127H16.173C16.0637 18.127 16 18.061 16 17.9479V16.7788C16 16.6656 16.0637 16.5996 16.173 16.5996H20.9169C21.0262 16.5996 21.0899 16.6656 21.0899 16.7788V17.9479C21.0899 18.061 21.0262 18.127 20.9169 18.127H19.451C19.4054 18.127 19.3781 18.1553 19.3781 18.2025V23.0205ZM23.3208 23.0205C23.3208 23.1336 23.257 23.1996 23.1478 23.1996H21.7819C21.6727 23.1996 21.6089 23.1336 21.6089 23.0205V16.7788C21.6089 16.6656 21.6727 16.5996 21.7819 16.5996H23.1387C23.2297 16.5996 23.3026 16.6373 23.3481 16.7222L24.4498 18.5796C24.4772 18.6362 24.5318 18.6362 24.5591 18.5796L25.6609 16.7222C25.7064 16.6373 25.7792 16.5996 25.8703 16.5996H27.227C27.3363 16.5996 27.4 16.6656 27.4 16.7788V23.0205C27.4 23.1336 27.3363 23.1996 27.227 23.1996H25.8612C25.7519 23.1996 25.6882 23.1336 25.6882 23.0205V19.6922C25.6882 19.6168 25.6335 19.6073 25.5971 19.6639L25.0326 20.635C24.9871 20.7199 24.9142 20.7576 24.8232 20.7576H24.1858C24.0947 20.7576 24.0219 20.7199 23.9764 20.635L23.4118 19.6639C23.3754 19.6073 23.3208 19.6168 23.3208 19.6922V23.0205Z" fill="#F16718"/>
</svg>
