<svg width="21" height="17" viewBox="0 0 21 17" fill="none" xmlns="http://www.w3.org/2000/svg">
<path fill-rule="evenodd" clip-rule="evenodd" d="M8.20664 17C11.4218 17 14.1424 14.5585 14.1424 10.5798C14.1424 6.60106 11.4218 4.18218 8.20664 4.18218C6.8576 4.18218 5.82334 4.52128 5.08137 5.24468V0H0V16.7739H4.83405V15.7566C5.57602 16.5931 6.67773 17 8.20664 17ZM6.99251 13.0213C5.86831 13.0213 4.99143 12.1848 4.99143 10.5798C4.99143 8.97473 5.86831 8.1609 6.99251 8.1609C8.1167 8.1609 8.99358 8.97473 8.99358 10.5798C8.99358 12.1848 8.1167 13.0213 6.99251 13.0213ZM21 14.0612C21 15.7793 19.7184 17 18.0321 17C16.3458 17 15.0642 15.7793 15.0642 14.0612C15.0642 12.3205 16.3458 11.1676 18.0321 11.1676C19.7184 11.1676 21 12.3205 21 14.0612Z" fill="white"/>
</svg>
