<svg width="26" height="26" viewBox="0 0 26 26" fill="none" xmlns="http://www.w3.org/2000/svg">
<path fill-rule="evenodd" clip-rule="evenodd" d="M25.6069 9.81448H23.6434C23.5488 10.3303 23.3597 10.7443 23.076 11.0566C22.7923 11.3688 22.3803 11.5249 21.8399 11.5249C21.3536 11.5249 20.8267 11.3959 20.2594 11.138C19.692 10.8801 19.0773 10.5848 18.4154 10.2523C17.7535 9.91968 17.0206 9.62783 16.2168 9.3767C15.413 9.12557 14.5316 9 13.5724 9C11.8433 9 10.4823 9.73303 9.48936 11.1991C8.49645 12.6652 8 14.6538 8 17.1652H12.3566C12.4512 16.6629 12.664 16.2557 12.9949 15.9434C13.3259 15.6312 13.7683 15.4751 14.3222 15.4751C14.7815 15.4751 15.2881 15.6007 15.8419 15.8518C16.3958 16.1029 17.0172 16.3982 17.7062 16.7376C18.3951 17.0769 19.155 17.3722 19.9858 17.6233C20.8166 17.8744 21.7183 18 22.691 18C23.6941 18 24.5687 17.7252 25.3148 17.1757C23.5755 22.307 18.719 26 13 26C5.8203 26 0 20.1797 0 13C0 5.8203 5.8203 0 13 0C19.0807 0 24.1863 4.1748 25.6069 9.81448Z" fill="#F94F4F"/>
</svg>
