<svg width="38" height="6" viewBox="0 0 38 6" fill="none" xmlns="http://www.w3.org/2000/svg">
<path fill-rule="evenodd" clip-rule="evenodd" d="M23.7224 2.95391V5.88474H22.4963V2.95391H21.9486V1.76841H22.4963C22.4963 0.615834 23.1257 -0.0757102 24.4826 0.00661648V1.19212C24.0249 1.15096 23.7224 1.29091 23.7224 1.76841H24.4826V2.95391H23.7224ZM20.3283 5.49781C20.0586 5.81065 19.658 6 19.1104 6C18.0395 6 17.1567 5.05324 17.1567 3.82658C17.1567 2.59991 18.0395 1.65315 19.1104 1.65315C19.658 1.65315 20.0586 1.8425 20.3283 2.15534V0.121874H21.5545V5.88474H20.3283V5.49781ZM4.01358 4.93799C3.66209 5.58013 2.96727 6 2.16619 6C0.923696 6 0 5.05324 0 3.82658C0 2.59991 0.923696 1.65315 2.16619 1.65315C2.9591 1.65315 3.66209 2.07302 4.01358 2.70693L2.94275 3.33261C2.80379 3.04447 2.50951 2.87159 2.14984 2.87159C1.61851 2.87159 1.22615 3.25852 1.22615 3.82658C1.22615 4.39463 1.61851 4.78156 2.14984 4.78156C2.50951 4.78156 2.81196 4.60868 2.94275 4.32054L4.01358 4.93799ZM5.5521 4.02416V5.88474H4.32596V1.76841H5.5521V2.50112C5.71559 1.94953 6.26327 1.68608 6.77825 1.68608V3.08563C6.27144 3.00331 5.5521 3.20913 5.5521 4.02416ZM8.97071 6C10.1723 6 11.1369 5.05324 11.1369 3.82658C11.1369 2.59991 10.1723 1.65315 8.97071 1.65315C7.76909 1.65315 6.80452 2.59991 6.80452 3.82658C6.80452 5.05324 7.76909 6 8.97071 6ZM8.03067 3.82658C8.03067 4.41109 8.43938 4.79803 8.97071 4.79803C9.50204 4.79803 9.91076 4.41109 9.91076 3.82658C9.91076 3.24206 9.50204 2.85512 8.97071 2.85512C8.43938 2.85512 8.03067 3.24206 8.03067 3.82658ZM13.4929 5.88474L14.1468 3.68662L14.8007 5.88474H15.9451L17.253 1.76841H15.9451L15.3566 3.97476L14.719 1.76841H13.5746L12.937 3.97476L12.3485 1.76841H11.0406L12.3485 5.88474H13.4929ZM19.3556 4.83096C18.7916 4.83096 18.3828 4.44403 18.3828 3.82658C18.3828 3.20913 18.7916 2.82219 19.3556 2.82219C19.9196 2.82219 20.3283 3.20913 20.3283 3.82658C20.3283 4.44403 19.9196 4.83096 19.3556 4.83096ZM26.1846 6C26.7241 6 27.1328 5.80242 27.3536 5.49781V5.88474H28.5797V1.76841H27.3536V4.01593C27.3536 4.60045 27.0429 4.86389 26.5933 4.86389C26.201 4.86389 25.8822 4.62514 25.8822 4.11472V1.76841H24.656V4.29584C24.656 5.40725 25.359 6 26.1846 6ZM30.4861 3.63722V5.88474H29.2599V1.76841H30.4861V2.15534C30.7068 1.85073 31.1155 1.65315 31.655 1.65315C32.4806 1.65315 33.1836 2.2459 33.1836 3.35731V5.88474H31.9574V3.53843C31.9574 3.02801 31.6386 2.78926 31.2463 2.78926C30.7967 2.78926 30.4861 3.0527 30.4861 3.63722ZM35.5559 6C36.1036 6 36.5041 5.81065 36.7739 5.49781V5.88474H38V0.121874H36.7739V2.15534C36.5041 1.8425 36.1036 1.65315 35.5559 1.65315C34.4851 1.65315 33.6022 2.59991 33.6022 3.82658C33.6022 5.05324 34.4851 6 35.5559 6ZM34.8284 3.82658C34.8284 4.44403 35.2371 4.83096 35.8011 4.83096C36.3651 4.83096 36.7739 4.44403 36.7739 3.82658C36.7739 3.20913 36.3651 2.82219 35.8011 2.82219C35.2371 2.82219 34.8284 3.20913 34.8284 3.82658Z" fill="white"/>
</svg>
