<svg width="22" height="22" viewBox="0 0 22 22" fill="none" xmlns="http://www.w3.org/2000/svg">
<path fill-rule="evenodd" clip-rule="evenodd" d="M20.0812 10.878C20.1031 10.6073 20.1143 10.3335 20.1143 10.0571C20.1143 9.51313 20.0711 8.97921 19.9879 8.45862C21.237 9.89005 21.9953 11.7611 22 13.8099C22.0049 15.9792 21.147 18.0615 19.6154 19.5978C18.0838 21.1341 16.0041 21.9984 13.8348 22C11.777 22.0016 9.89627 21.2424 8.45863 19.9879C8.97922 20.0711 9.51313 20.1143 10.0571 20.1143C10.3332 20.1143 10.6067 20.1032 10.8772 20.0813C12.6141 20.9008 14.6522 20.9765 16.4904 20.2098C19.074 19.1321 20.7529 16.603 20.7428 13.8036C20.7381 12.7571 20.5013 11.7657 20.0812 10.878ZM20.0812 10.878C18.974 8.53808 16.5934 6.91921 13.8348 6.91429C11.0355 6.91179 8.51086 8.59748 7.44019 11.184C6.36952 13.7705 6.9641 16.7474 8.94621 18.7241C9.51806 19.2944 10.1728 19.749 10.8772 20.0813C15.7773 19.6859 19.6854 15.778 20.0812 10.878ZM8.45863 19.9879C3.66392 19.2222 0 15.0675 0 10.0571C0 4.50274 4.50273 0 10.0571 0C15.0675 0 19.2222 3.66392 19.9879 8.45862C18.4867 6.73816 16.2766 5.65278 13.814 5.65716C9.30272 5.66517 5.65142 9.3276 5.65714 13.8389C5.66025 16.2925 6.74446 18.4922 8.45863 19.9879Z" fill="#3EE9E5"/>
</svg>
