<svg width="26" height="26" viewBox="0 0 26 26" fill="none" xmlns="http://www.w3.org/2000/svg">
<path d="M2.55772 12.1022C3.2715 11.3884 4.40542 11.3508 5.16342 11.9895L5.28613 12.1022L15.4276 22.2436C16.181 22.9971 16.181 24.2186 15.4276 24.972C14.7138 25.6858 13.5799 25.7234 12.8219 25.0847L12.6992 24.972L2.55772 14.8306C1.80429 14.0772 1.80429 12.8556 2.55772 12.1022Z" fill="#444444"/>
<path d="M23.1821 1.01737C24.1888 0.0216051 25.889 0.676817 25.9881 2.04283L25.9926 2.16894V12.9053C25.9926 13.8047 25.2555 14.5338 24.3463 14.5338C23.4784 14.5338 22.7673 13.8695 22.7044 13.0268L22.6999 12.9053L22.6996 6.10016L14.6568 14.0568C13.6502 15.0526 11.95 14.3974 11.8508 13.0314L11.8463 12.9053L11.846 6.10016L3.80316 14.0568C3.19405 14.6594 2.22642 14.6911 1.57957 14.152L1.47485 14.0568C0.865748 13.4543 0.83369 12.4971 1.37868 11.8573L1.47485 11.7537L12.3285 1.01737C13.3351 0.0216051 15.0353 0.676817 15.1345 2.04283L15.139 2.16894L15.1387 8.97296L23.1821 1.01737Z" fill="white"/>
</svg>
