<svg width="34" height="7" viewBox="0 0 34 7" fill="none" xmlns="http://www.w3.org/2000/svg">
<path fill-rule="evenodd" clip-rule="evenodd" d="M21.2187 5.20275C21.0254 5.28092 20.8152 5.32 20.5883 5.32C20.2641 5.32 19.974 5.24125 19.7181 5.08375C19.4622 4.92625 19.2613 4.71042 19.1154 4.43625C18.9696 4.16208 18.8966 3.85 18.8966 3.5C18.8966 3.15 18.9696 2.83792 19.1154 2.56375C19.2613 2.28958 19.4622 2.07375 19.7181 1.91625C19.974 1.75875 20.2641 1.68 20.5883 1.68C20.806 1.68 21.0086 1.71675 21.1962 1.79025C21.3837 1.86375 21.5505 1.96583 21.6964 2.0965V0H22.6968V5.25H21.7519L21.7276 4.872C21.5817 5.01433 21.4121 5.12458 21.2187 5.20275ZM1.00041 4.9035V7H0V1.75H0.94483L0.969146 2.128C1.11504 1.98567 1.28525 1.87542 1.47977 1.79725C1.6743 1.71908 1.88387 1.68 2.1085 1.68C2.43502 1.68 2.72565 1.75875 2.98038 1.91625C3.23512 2.07375 3.43543 2.28958 3.58132 2.56375C3.72722 2.83792 3.80016 3.15 3.80016 3.5C3.80016 3.85 3.72722 4.16208 3.58132 4.43625C3.43543 4.71042 3.23512 4.92625 2.98038 5.08375C2.72565 5.24125 2.43502 5.32 2.1085 5.32C1.89082 5.32 1.68819 5.28325 1.50061 5.20975C1.31304 5.13625 1.1463 5.03417 1.00041 4.9035ZM1.25051 4.1755C1.41725 4.35517 1.62798 4.445 1.88271 4.445C2.13745 4.445 2.34818 4.35517 2.51492 4.1755C2.68165 3.99583 2.76502 3.77067 2.76502 3.5C2.76502 3.22933 2.68165 3.00417 2.51492 2.8245C2.34818 2.64483 2.13745 2.555 1.88271 2.555C1.62798 2.555 1.41725 2.64483 1.25051 2.8245C1.08378 3.00417 1.00041 3.22933 1.00041 3.5C1.00041 3.77067 1.08378 3.99583 1.25051 4.1755ZM6.07193 5.32C6.42855 5.32 6.74581 5.24125 7.0237 5.08375C7.30159 4.92625 7.52101 4.71042 7.68196 4.43625C7.8429 4.16208 7.92338 3.85 7.92338 3.5C7.92338 3.15 7.8429 2.83792 7.68196 2.56375C7.52101 2.28958 7.30159 2.07375 7.0237 1.91625C6.74581 1.75875 6.42855 1.68 6.07193 1.68C5.7153 1.68 5.39746 1.75875 5.11841 1.91625C4.83936 2.07375 4.61936 2.28958 4.45842 2.56375C4.29747 2.83792 4.217 3.15 4.217 3.5C4.217 3.85 4.29747 4.16208 4.45842 4.43625C4.61936 4.71042 4.83936 4.92625 5.11841 5.08375C5.39746 5.24125 5.7153 5.32 6.07193 5.32ZM5.43972 4.1755C5.60646 4.35517 5.81719 4.445 6.07192 4.445C6.32666 4.445 6.53739 4.35517 6.70413 4.1755C6.87086 3.99583 6.95423 3.77067 6.95423 3.5C6.95423 3.22933 6.87086 3.00417 6.70413 2.8245C6.53739 2.64483 6.32666 2.555 6.07192 2.555C5.81719 2.555 5.60646 2.64483 5.43972 2.8245C5.27299 3.00417 5.18962 3.22933 5.18962 3.5C5.18962 3.77067 5.27299 3.99583 5.43972 4.1755ZM9.58378 5.25V3.3915C9.58378 3.11383 9.64746 2.905 9.77483 2.765C9.90219 2.625 10.0562 2.555 10.2368 2.555C10.4151 2.555 10.5674 2.62267 10.6936 2.758C10.8198 2.89333 10.8829 3.09633 10.8829 3.367V5.25H11.8833V3.3915C11.8833 3.11383 11.947 2.905 12.0744 2.765C12.2017 2.625 12.3557 2.555 12.5364 2.555C12.7147 2.555 12.8669 2.62267 12.9932 2.758C13.1194 2.89333 13.1825 3.09633 13.1825 3.367V5.25H14.1829V3.367C14.1829 2.83733 14.0659 2.42375 13.832 2.12625C13.5981 1.82875 13.2705 1.68 12.849 1.68C12.5827 1.68 12.3511 1.7395 12.1543 1.8585C11.9574 1.9775 11.8011 2.14783 11.6853 2.3695C11.463 1.90983 11.0844 1.68 10.5494 1.68C10.1303 1.68 9.79798 1.827 9.55251 2.121L9.5282 1.75H8.58337V5.25H9.58378ZM17.5801 5.08375C17.3022 5.24125 16.9849 5.32 16.6283 5.32C16.2717 5.32 15.9539 5.24125 15.6748 5.08375C15.3958 4.92625 15.1758 4.71042 15.0148 4.43625C14.8539 4.16208 14.7734 3.85 14.7734 3.5C14.7734 3.15 14.8539 2.83792 15.0148 2.56375C15.1758 2.28958 15.3958 2.07375 15.6748 1.91625C15.9539 1.75875 16.2717 1.68 16.6283 1.68C16.9849 1.68 17.3022 1.75875 17.5801 1.91625C17.858 2.07375 18.0774 2.28958 18.2384 2.56375C18.3993 2.83792 18.4798 3.15 18.4798 3.5C18.4798 3.85 18.3993 4.16208 18.2384 4.43625C18.0774 4.71042 17.858 4.92625 17.5801 5.08375ZM16.6283 4.445C16.3736 4.445 16.1629 4.35517 15.9961 4.1755C15.8294 3.99583 15.746 3.77067 15.746 3.5C15.746 3.22933 15.8294 3.00417 15.9961 2.8245C16.1629 2.64483 16.3736 2.555 16.6283 2.555C16.8831 2.555 17.0938 2.64483 17.2605 2.8245C17.4273 3.00417 17.5106 3.22933 17.5106 3.5C17.5106 3.77067 17.4273 3.99583 17.2605 4.1755C17.0938 4.35517 16.8831 4.445 16.6283 4.445ZM20.8141 4.445C20.5593 4.445 20.3486 4.35517 20.1819 4.1755C20.0151 3.99583 19.9318 3.77067 19.9318 3.5C19.9318 3.22933 20.0151 3.00417 20.1819 2.8245C20.3486 2.64483 20.5593 2.555 20.8141 2.555C21.0688 2.555 21.2795 2.64483 21.4463 2.8245C21.613 3.00417 21.6964 3.22933 21.6964 3.5C21.6964 3.77067 21.613 3.99583 21.4463 4.1755C21.2795 4.35517 21.0688 4.445 20.8141 4.445ZM26.1635 5.08375C25.8856 5.24125 25.5683 5.32 25.2117 5.32C24.8551 5.32 24.5372 5.24125 24.2582 5.08375C23.9791 4.92625 23.7591 4.71042 23.5982 4.43625C23.4372 4.16208 23.3568 3.85 23.3568 3.5C23.3568 3.15 23.4372 2.83792 23.5982 2.56375C23.7591 2.28958 23.9791 2.07375 24.2582 1.91625C24.5372 1.75875 24.8551 1.68 25.2117 1.68C25.5683 1.68 25.8856 1.75875 26.1635 1.91625C26.4414 2.07375 26.6608 2.28958 26.8217 2.56375C26.9827 2.83792 27.0631 3.15 27.0631 3.5C27.0631 3.85 26.9827 4.16208 26.8217 4.43625C26.6608 4.71042 26.4414 4.92625 26.1635 5.08375ZM25.2117 4.445C24.957 4.445 24.7462 4.35517 24.5795 4.1755C24.4128 3.99583 24.3294 3.77067 24.3294 3.5C24.3294 3.22933 24.4128 3.00417 24.5795 2.8245C24.7462 2.64483 24.957 2.555 25.2117 2.555C25.4664 2.555 25.6772 2.64483 25.8439 2.8245C26.0106 3.00417 26.094 3.22933 26.094 3.5C26.094 3.77067 26.0106 3.99583 25.8439 4.1755C25.6772 4.35517 25.4664 4.445 25.2117 4.445ZM28.7235 3.7065V5.25H27.7231V1.75H28.5985L28.6471 2.2505C28.8995 1.87017 29.2469 1.68 29.6892 1.68C29.8397 1.68 29.9949 1.70333 30.1547 1.75L30.0157 2.6215C29.8814 2.57717 29.7494 2.555 29.6197 2.555C29.3511 2.555 29.1346 2.65475 28.9702 2.85425C28.8057 3.05375 28.7235 3.33783 28.7235 3.7065ZM32.1485 5.32C32.5052 5.32 32.8224 5.24125 33.1003 5.08375C33.3782 4.92625 33.5976 4.71042 33.7586 4.43625C33.9195 4.16208 34 3.85 34 3.5C34 3.15 33.9195 2.83792 33.7586 2.56375C33.5976 2.28958 33.3782 2.07375 33.1003 1.91625C32.8224 1.75875 32.5052 1.68 32.1485 1.68C31.7919 1.68 31.4741 1.75875 31.195 1.91625C30.916 2.07375 30.696 2.28958 30.535 2.56375C30.3741 2.83792 30.2936 3.15 30.2936 3.5C30.2936 3.85 30.3741 4.16208 30.535 4.43625C30.696 4.71042 30.916 4.92625 31.195 5.08375C31.4741 5.24125 31.7919 5.32 32.1485 5.32ZM31.5163 4.1755C31.6831 4.35517 31.8938 4.445 32.1485 4.445C32.4033 4.445 32.614 4.35517 32.7808 4.1755C32.9475 3.99583 33.0309 3.77067 33.0309 3.5C33.0309 3.22933 32.9475 3.00417 32.7808 2.8245C32.614 2.64483 32.4033 2.555 32.1485 2.555C31.8938 2.555 31.6831 2.64483 31.5163 2.8245C31.3496 3.00417 31.2662 3.22933 31.2662 3.5C31.2662 3.77067 31.3496 3.99583 31.5163 4.1755Z" fill="#D7E0FF"/>
</svg>
