<svg width="40" height="12" viewBox="0 0 40 12" fill="none" xmlns="http://www.w3.org/2000/svg">
<path fill-rule="evenodd" clip-rule="evenodd" d="M39.696 9.28V11.2H36.336C35.9733 11.2 35.6773 11.0827 35.448 10.848C35.2187 10.6133 35.104 10.3147 35.104 9.952V5.184H32.752V3.264H35.104V0H37.12V3.264H39.984V5.184H37.12V8.8C37.12 9.12 37.264 9.28 37.552 9.28H39.696ZM3.648 11.424C4.69333 11.424 5.504 11.1893 6.08 10.72C6.656 10.2507 6.944 9.62133 6.944 8.832V8.736C6.944 8.02133 6.688 7.464 6.176 7.064C5.664 6.664 5.00267 6.42133 4.192 6.336C3.488 6.26133 3.00267 6.168 2.736 6.056C2.46933 5.944 2.336 5.76 2.336 5.504C2.336 5.32267 2.42133 5.17067 2.592 5.048C2.76267 4.92533 3.01867 4.864 3.36 4.864C3.73333 4.864 4.03733 4.94667 4.272 5.112C4.50667 5.27733 4.672 5.504 4.768 5.792L6.592 5.056C6.50667 4.832 6.384 4.6 6.224 4.36C6.064 4.12 5.856 3.90133 5.6 3.704C5.344 3.50667 5.032 3.34667 4.664 3.224C4.296 3.10133 3.86133 3.04 3.36 3.04C2.976 3.04 2.60267 3.09333 2.24 3.2C1.87733 3.30667 1.55733 3.464 1.28 3.672C1.00267 3.88 0.778667 4.13333 0.608 4.432C0.437333 4.73067 0.352 5.07733 0.352 5.472V5.568C0.352 6.32533 0.616 6.89867 1.144 7.288C1.672 7.67733 2.384 7.90933 3.28 7.984C3.61067 8.016 3.88533 8.05867 4.104 8.112C4.32267 8.16533 4.496 8.232 4.624 8.312C4.752 8.392 4.84 8.47733 4.888 8.568C4.936 8.65867 4.96 8.75733 4.96 8.864C4.96 9.04533 4.86667 9.21333 4.68 9.368C4.49333 9.52267 4.14933 9.6 3.648 9.6C3.08267 9.6 2.664 9.472 2.392 9.216C2.12 8.96 1.94133 8.66133 1.856 8.32L0 8.928C0.0533333 9.20533 0.157333 9.49067 0.312 9.784C0.466667 10.0773 0.688 10.344 0.976 10.584C1.264 10.824 1.62667 11.024 2.064 11.184C2.50133 11.344 3.02933 11.424 3.648 11.424ZM11.844 11.424C12.9747 11.424 13.8787 11.136 14.556 10.56C15.2333 9.984 15.6627 9.22667 15.844 8.288L13.86 7.792C13.764 8.31467 13.5533 8.73067 13.228 9.04C12.9027 9.34933 12.4307 9.504 11.812 9.504C11.524 9.504 11.252 9.45867 10.996 9.368C10.74 9.27733 10.516 9.14133 10.324 8.96C10.132 8.77867 9.98 8.552 9.868 8.28C9.756 8.008 9.7 7.696 9.7 7.344V7.248C9.7 6.896 9.756 6.57867 9.868 6.296C9.98 6.01333 10.132 5.77333 10.324 5.576C10.516 5.37867 10.74 5.22667 10.996 5.12C11.252 5.01333 11.524 4.96 11.812 4.96C12.4307 4.96 12.9107 5.13067 13.252 5.472C13.5933 5.81333 13.796 6.21867 13.86 6.688L15.844 6.176C15.6627 5.23733 15.228 4.48 14.54 3.904C13.852 3.328 12.9533 3.04 11.844 3.04C11.268 3.04 10.7267 3.136 10.22 3.328C9.71333 3.52 9.27067 3.79733 8.892 4.16C8.51333 4.52267 8.21733 4.96 8.004 5.472C7.79067 5.984 7.684 6.56 7.684 7.2V7.392C7.684 8.032 7.79067 8.60267 8.004 9.104C8.21733 9.60533 8.51067 10.0267 8.884 10.368C9.25733 10.7093 9.69733 10.9707 10.204 11.152C10.7107 11.3333 11.2573 11.424 11.844 11.424ZM21.6 11.152C21.104 11.3333 20.584 11.424 20.04 11.424C19.496 11.424 18.976 11.3333 18.48 11.152C17.984 10.9707 17.544 10.7067 17.16 10.36C16.776 10.0133 16.472 9.58667 16.248 9.08C16.024 8.57333 15.912 7.98933 15.912 7.328V7.136C15.912 6.48533 16.024 5.90667 16.248 5.4C16.472 4.89333 16.776 4.464 17.16 4.112C17.544 3.76 17.984 3.49333 18.48 3.312C18.976 3.13067 19.496 3.04 20.04 3.04C20.584 3.04 21.104 3.13067 21.6 3.312C22.096 3.49333 22.536 3.76 22.92 4.112C23.304 4.464 23.608 4.89333 23.832 5.4C24.056 5.90667 24.168 6.48533 24.168 7.136V7.328C24.168 7.98933 24.056 8.57333 23.832 9.08C23.608 9.58667 23.304 10.0133 22.92 10.36C22.536 10.7067 22.096 10.9707 21.6 11.152ZM20.04 9.504C19.752 9.504 19.48 9.456 19.224 9.36C18.968 9.264 18.744 9.12533 18.552 8.944C18.36 8.76267 18.208 8.54133 18.096 8.28C17.984 8.01867 17.928 7.72267 17.928 7.392V7.072C17.928 6.74133 17.984 6.44533 18.096 6.184C18.208 5.92267 18.36 5.70133 18.552 5.52C18.744 5.33867 18.968 5.2 19.224 5.104C19.48 5.008 19.752 4.96 20.04 4.96C20.328 4.96 20.6 5.008 20.856 5.104C21.112 5.2 21.336 5.33867 21.528 5.52C21.72 5.70133 21.872 5.92267 21.984 6.184C22.096 6.44533 22.152 6.74133 22.152 7.072V7.392C22.152 7.72267 22.096 8.01867 21.984 8.28C21.872 8.54133 21.72 8.76267 21.528 8.944C21.336 9.12533 21.112 9.264 20.856 9.36C20.6 9.456 20.328 9.504 20.04 9.504ZM29.892 11.152C29.396 11.3333 28.876 11.424 28.332 11.424C27.788 11.424 27.268 11.3333 26.772 11.152C26.276 10.9707 25.836 10.7067 25.452 10.36C25.068 10.0133 24.764 9.58667 24.54 9.08C24.316 8.57333 24.204 7.98933 24.204 7.328V7.136C24.204 6.48533 24.316 5.90667 24.54 5.4C24.764 4.89333 25.068 4.464 25.452 4.112C25.836 3.76 26.276 3.49333 26.772 3.312C27.268 3.13067 27.788 3.04 28.332 3.04C28.876 3.04 29.396 3.13067 29.892 3.312C30.388 3.49333 30.828 3.76 31.212 4.112C31.596 4.464 31.9 4.89333 32.124 5.4C32.348 5.90667 32.46 6.48533 32.46 7.136V7.328C32.46 7.98933 32.348 8.57333 32.124 9.08C31.9 9.58667 31.596 10.0133 31.212 10.36C30.828 10.7067 30.388 10.9707 29.892 11.152ZM28.332 9.504C28.044 9.504 27.772 9.456 27.516 9.36C27.26 9.264 27.036 9.12533 26.844 8.944C26.652 8.76267 26.5 8.54133 26.388 8.28C26.276 8.01867 26.22 7.72267 26.22 7.392V7.072C26.22 6.74133 26.276 6.44533 26.388 6.184C26.5 5.92267 26.652 5.70133 26.844 5.52C27.036 5.33867 27.26 5.2 27.516 5.104C27.772 5.008 28.044 4.96 28.332 4.96C28.62 4.96 28.892 5.008 29.148 5.104C29.404 5.2 29.628 5.33867 29.82 5.52C30.012 5.70133 30.164 5.92267 30.276 6.184C30.388 6.44533 30.444 6.74133 30.444 7.072V7.392C30.444 7.72267 30.388 8.01867 30.276 8.28C30.164 8.54133 30.012 8.76267 29.82 8.944C29.628 9.12533 29.404 9.264 29.148 9.36C28.892 9.456 28.62 9.504 28.332 9.504Z" fill="white"/>
</svg>
