<svg width="24" height="24" viewBox="0 0 24 24" fill="none" xmlns="http://www.w3.org/2000/svg">
<rect width="24" height="24" fill="white"/>
<path fill-rule="evenodd" clip-rule="evenodd" d="M6.37811 10.0205C6.37811 10.1336 6.31438 10.1996 6.20511 10.1996H4.8393C4.73003 10.1996 4.66629 10.1336 4.66629 10.0205V5.20247C4.66629 5.15532 4.63898 5.12704 4.59345 5.12704H3.173C3.06374 5.12704 3 5.06104 3 4.9479V3.77875C3 3.66561 3.06374 3.59961 3.173 3.59961H7.91693C8.0262 3.59961 8.08994 3.66561 8.08994 3.77875V4.9479C8.08994 5.06104 8.0262 5.12704 7.91693 5.12704H6.45096C6.40543 5.12704 6.37811 5.15532 6.37811 5.20247V10.0205ZM10.3208 10.0205C10.3208 10.1336 10.257 10.1996 10.1478 10.1996H8.78195C8.67268 10.1996 8.60895 10.1336 8.60895 10.0205V3.77875C8.60895 3.66561 8.67268 3.59961 8.78195 3.59961H10.1387C10.2297 3.59961 10.3026 3.63732 10.3481 3.72218L11.4498 5.57961C11.4772 5.63618 11.5318 5.63618 11.5591 5.57961L12.6609 3.72218C12.7064 3.63732 12.7792 3.59961 12.8703 3.59961H14.227C14.3363 3.59961 14.4 3.66561 14.4 3.77875V10.0205C14.4 10.1336 14.3363 10.1996 14.227 10.1996H12.8612C12.7519 10.1996 12.6882 10.1336 12.6882 10.0205V6.69218C12.6882 6.61675 12.6335 6.60732 12.5971 6.6639L12.0326 7.63504C11.9871 7.71989 11.9142 7.75761 11.8232 7.75761H11.1858C11.0947 7.75761 11.0219 7.71989 10.9764 7.63504L10.4118 6.6639C10.3754 6.60732 10.3208 6.61675 10.3208 6.69218V10.0205Z" fill="#F16718"/>
</svg>
