<svg width="38" height="3" viewBox="0 0 38 3" fill="none" xmlns="http://www.w3.org/2000/svg">
<path fill-rule="evenodd" clip-rule="evenodd" d="M15.6518 3C16.2075 3 16.6674 2.95294 17.0315 2.85882C17.3956 2.76471 17.6712 2.62353 17.8584 2.43529C18.0455 2.24706 18.1464 2.01324 18.161 1.73382H17.0205C16.9854 1.81029 16.9211 1.88162 16.8275 1.94779C16.7339 2.01397 16.5942 2.06618 16.4085 2.10441C16.2228 2.14265 15.9706 2.16176 15.6518 2.16176C15.2775 2.16176 14.9734 2.13971 14.7394 2.09559C14.5054 2.05147 14.3344 1.98235 14.2261 1.88824C14.1179 1.79412 14.0638 1.67206 14.0638 1.52206C14.0638 1.35735 14.1179 1.225 14.2261 1.125C14.3344 1.025 14.5054 0.952206 14.7394 0.906618C14.9734 0.861029 15.2775 0.838235 15.6518 0.838235C15.9706 0.838235 16.2236 0.858823 16.4107 0.9C16.5979 0.941176 16.7383 0.997794 16.8319 1.06985C16.9254 1.14191 16.9898 1.225 17.0249 1.31912H18.1654C18.1508 1.03676 18.0499 0.797059 17.8627 0.6C17.6756 0.402941 17.3992 0.253676 17.0337 0.152206C16.6681 0.0507353 16.2075 0 15.6518 0C15.2278 0 14.8476 0.025 14.5113 0.075C14.175 0.125 13.8884 0.208088 13.6515 0.324265C13.4146 0.440441 13.2333 0.596324 13.1075 0.791912C12.9818 0.9875 12.9189 1.23088 12.9189 1.52206C12.9189 1.81324 12.9818 2.05441 13.1075 2.24559C13.2333 2.43676 13.4146 2.5875 13.6515 2.69779C13.8884 2.80809 14.175 2.88603 14.5113 2.93162C14.8476 2.97721 15.2278 3 15.6518 3ZM4.91313 0.0882353L3.22863 2.91176H1.70205L0 0.0882353H1.23706L2.46534 2.38346L3.69362 0.0882353H4.91313ZM11.1094 2.07353V2.91176H6.67879V0.0882353H11.1006V0.926471H7.77547V1.27941H10.4952V1.72059H7.77547V2.07353H11.1094ZM22.6728 0.926471V2.91176H21.5761V0.926471H19.8433V0.0882353H24.4055V0.926471H22.6728ZM28.6058 3C29.2434 3 29.7566 2.94338 30.1456 2.83015C30.5345 2.71691 30.8175 2.54926 30.9944 2.32721C31.1713 2.10515 31.2598 1.82941 31.2598 1.5C31.2598 1.17059 31.1713 0.894853 30.9944 0.672794C30.8175 0.450735 30.5345 0.283088 30.1456 0.169853C29.7566 0.0566176 29.2434 0 28.6058 0C27.9683 0 27.455 0.0566176 27.0661 0.169853C26.6771 0.283088 26.3942 0.450735 26.2173 0.672794C26.0403 0.894853 25.9519 1.17059 25.9519 1.5C25.9519 1.82941 26.0403 2.10515 26.2173 2.32721C26.3942 2.54926 26.6771 2.71691 27.0661 2.83015C27.455 2.94338 27.9683 3 28.6058 3ZM27.814 2.10662C28.0407 2.14338 28.3046 2.16176 28.6058 2.16176C28.9071 2.16176 29.1673 2.14338 29.3867 2.10662C29.606 2.06985 29.7756 2.00368 29.8955 1.90809C30.0154 1.8125 30.0754 1.67647 30.0754 1.5C30.0754 1.32353 30.0154 1.1875 29.8955 1.09191C29.7756 0.996324 29.606 0.930147 29.3867 0.893382C29.1673 0.856618 28.9071 0.838235 28.6058 0.838235C28.3046 0.838235 28.0407 0.856618 27.814 0.893382C27.5874 0.930147 27.4104 0.996324 27.2832 1.09191C27.156 1.1875 27.0924 1.32353 27.0924 1.5C27.0924 1.67647 27.156 1.8125 27.2832 1.90809C27.4104 2.00368 27.5874 2.06985 27.814 2.10662ZM34.2976 2.91176V2.11765H36.0128C36.2468 2.11765 36.42 2.12647 36.5326 2.14412C36.6452 2.16176 36.7183 2.19338 36.752 2.23897C36.7856 2.28456 36.8024 2.35147 36.8024 2.43971V2.91176H37.8991V2.30735C37.8991 2.17794 37.8618 2.07868 37.7872 2.00956C37.7127 1.94044 37.5811 1.89265 37.3924 1.86618C37.3581 1.86136 37.3212 1.85694 37.2816 1.8529L37.243 1.84936L37.3201 1.83529C37.4253 1.81412 37.5213 1.78259 37.6078 1.74071L37.671 1.70735C37.7734 1.64853 37.8538 1.56618 37.9123 1.46029C37.9708 1.35441 38 1.22059 38 1.05882C38 0.814706 37.9379 0.622059 37.8136 0.480882C37.6893 0.339706 37.5211 0.238971 37.3091 0.178676C37.0971 0.118382 36.858 0.0882353 36.5919 0.0882353H33.2009V2.91176H34.2976ZM34.2976 1.38088H36.5919C36.6796 1.38088 36.7534 1.36618 36.8134 1.33676C36.8733 1.30735 36.9033 1.25147 36.9033 1.16912C36.9033 1.09265 36.8733 1.04044 36.8134 1.0125C36.7534 0.984559 36.6796 0.970588 36.5919 0.970588H34.2976V1.38088Z" fill="white"/>
</svg>
